<?xml version="1.0" standalone="no"?>
<!DOCTYPE svg PUBLIC "-//W3C//DTD SVG 20010904//EN"
 "http://www.w3.org/TR/2001/REC-SVG-20010904/DTD/svg10.dtd">
<svg version="1.0" xmlns="http://www.w3.org/2000/svg"
 width="946.000000pt" height="264.000000pt" viewBox="0 0 946.000000 264.000000"
 preserveAspectRatio="xMidYMid meet">

<g transform="translate(0.000000,264.000000) scale(0.100000,-0.100000)"
fill="#000000" stroke="none">
<path d="M3145 2365 c-32 -31 -31 -62 0 -127 l25 -52 -28 -36 c-16 -19 -37
-58 -46 -87 -11 -33 -24 -54 -37 -58 -23 -8 -34 -27 -43 -77 -4 -22 -15 -42
-26 -48 -12 -6 -20 -23 -22 -48 -2 -28 -8 -38 -23 -40 -19 -3 -42 -22 -113
-99 -30 -32 -57 -35 -89 -10 -16 12 -17 103 -1 178 15 74 -2 133 -47 160 -35
22 -78 24 -97 6 -7 -8 -42 -17 -76 -20 -35 -4 -71 -11 -82 -17 -52 -28 -16
-103 45 -93 21 3 38 -1 56 -16 25 -19 26 -26 31 -135 4 -91 10 -123 28 -161
27 -56 82 -98 156 -122 l54 -17 1 -110 c2 -205 -2 -441 -8 -494 -7 -70 -27
-81 -109 -57 -209 59 -523 165 -560 190 -20 13 -21 18 -13 57 6 24 26 87 45
140 l36 97 -22 57 c-40 109 -48 162 -35 244 11 73 11 74 18 35 17 -92 32 -136
53 -156 27 -25 54 -19 54 11 0 15 -8 22 -30 27 -26 5 -32 12 -44 57 -8 28 -17
72 -21 97 -3 28 -18 62 -36 88 -30 40 -107 101 -128 101 -6 0 -11 7 -11 15 0
8 7 15 15 15 8 0 12 6 9 14 -3 8 0 17 6 21 8 5 8 10 0 20 -7 9 -7 21 0 40 17
46 -5 130 -41 155 -21 15 -29 30 -29 50 0 18 -12 42 -31 64 -28 33 -29 38 -19
73 9 35 8 40 -15 60 -24 22 -28 22 -56 8 -35 -18 -39 -53 -9 -80 25 -22 25
-26 1 -51 -30 -32 -42 -62 -36 -87 7 -27 -18 -54 -61 -66 -26 -7 -29 -12 -29
-47 0 -21 -3 -43 -7 -49 -3 -5 -9 -24 -12 -41 -5 -22 -17 -35 -41 -47 -24 -11
-42 -32 -60 -67 -21 -42 -30 -50 -53 -50 -20 0 -32 7 -40 23 -15 30 -34 141
-27 159 3 8 -4 27 -16 42 -20 25 -26 27 -62 22 -47 -8 -161 -59 -172 -77 -11
-17 23 -39 61 -39 66 0 80 -13 94 -83 19 -104 65 -158 160 -189 l45 -15 0 -74
c0 -157 -51 -383 -89 -394 -6 -2 -75 -6 -153 -8 l-141 -5 -12 28 c-6 15 -29
44 -51 66 -21 21 -39 43 -39 49 0 19 54 44 72 34 19 -11 48 -2 48 15 0 7 -20
32 -45 56 l-45 44 -23 -22 c-13 -12 -33 -22 -45 -22 -22 0 -52 34 -52 59 0 33
-31 51 -75 44 -31 -4 -50 -1 -66 11 -31 21 -55 20 -95 -4 -21 -14 -39 -36 -50
-65 -17 -46 -16 -63 10 -155 9 -30 16 -72 16 -93 0 -21 9 -55 20 -77 11 -22
20 -45 20 -52 0 -7 -21 -26 -48 -41 -119 -71 -176 -107 -170 -107 9 0 61 23
68 30 31 32 296 125 353 123 10 0 15 2 12 6 -13 12 204 38 340 40 148 2 323
-13 339 -29 6 -6 21 -10 36 -10 31 -1 103 -34 93 -43 -3 -4 -1 -7 5 -7 5 0 12
4 14 9 3 11 110 -21 109 -32 -2 -19 0 -21 8 -9 6 10 13 11 34 1 15 -7 27 -16
27 -21 0 -5 5 -6 10 -3 6 4 9 1 8 -6 -2 -8 14 -15 43 -20 25 -4 74 -21 108
-38 35 -17 69 -31 76 -31 8 0 17 -5 21 -12 5 -8 2 -9 -9 -5 -9 3 -19 2 -22 -3
-3 -5 11 -7 30 -5 30 3 35 0 30 -14 -3 -10 4 -21 18 -30 22 -14 22 -14 3 8
-11 11 -14 21 -9 21 15 0 139 -47 198 -75 113 -53 565 -158 752 -174 227 -20
504 -11 522 17 3 5 15 12 26 15 11 2 -6 5 -38 6 -37 1 -56 5 -52 11 4 6 25 8
51 5 24 -3 44 -1 44 4 0 13 -65 21 -187 21 l-113 0 0 38 c0 37 33 136 84 248
l28 61 -32 89 c-30 84 -32 98 -35 249 -1 88 -6 173 -10 189 -6 22 -5 28 6 24
7 -2 26 -40 41 -83 29 -84 69 -135 104 -135 25 0 33 9 39 40 3 13 -2 23 -13
27 -76 24 -94 42 -141 136 -21 40 -40 59 -115 108 -143 92 -134 84 -115 105
20 24 31 74 15 74 -8 0 -11 37 -11 118 0 137 -16 181 -77 221 -46 30 -51 66
-13 101 19 17 23 29 18 49 -16 69 -91 94 -138 46z m-1412 -432 c11 -10 -13
-32 -29 -26 -11 4 -12 9 -3 19 13 15 22 18 32 7z m71 -399 c32 -11 64 -15 97
-11 l50 6 38 -82 c21 -45 42 -96 45 -113 9 -42 -9 -117 -45 -189 -52 -104 -39
-100 -172 -58 l-115 38 -8 93 c-9 126 -1 297 16 316 16 20 35 20 94 0z m-155
-176 c7 -57 16 -120 18 -141 3 -20 2 -48 -1 -62 -5 -21 -12 -25 -41 -25 -18 0
-45 4 -58 9 -24 9 -24 11 -12 63 7 29 20 74 29 101 8 26 18 66 22 90 14 100
27 90 43 -35z m479 -54 l21 -51 -21 -74 c-11 -41 -26 -85 -33 -99 -7 -14 -11
-37 -8 -52 7 -36 -10 -42 -57 -18 -36 18 -40 24 -34 48 3 15 10 36 15 47 39
86 71 178 76 218 7 55 11 52 41 -19z m975 -5 c49 -17 77 -20 135 -16 l74 6 24
-52 c13 -29 24 -58 24 -65 0 -8 12 -48 26 -89 30 -85 29 -116 -7 -229 -49
-158 -61 -174 -130 -174 -39 0 -51 4 -55 18 -3 9 -10 25 -15 34 -5 10 -9 31
-9 47 0 21 -14 47 -44 84 -68 83 -128 195 -133 248 -3 25 2 73 11 108 9 34 16
71 16 82 0 24 7 24 83 -2z m-2148 -49 c3 -5 30 -10 58 -10 50 0 55 -2 90 -44
20 -25 37 -49 37 -54 0 -12 -40 -27 -114 -42 -48 -10 -61 -10 -71 2 -15 15
-47 137 -39 149 7 12 31 11 39 -1z m-80 -74 c19 -40 35 -78 35 -83 0 -11 -59
-43 -79 -43 -6 0 -11 8 -11 19 0 10 -7 36 -16 56 -14 35 -13 92 2 117 14 22
37 0 69 -66z m2045 -14 l0 -88 50 -64 c122 -158 160 -224 160 -280 0 -36 -1
-36 -140 -10 -164 31 -150 24 -150 73 1 79 39 383 56 445 2 6 8 12 14 12 6 0
10 -34 10 -88z m589 -75 c30 -62 27 -137 -9 -259 -30 -100 -46 -130 -84 -150
-13 -7 -22 -6 -33 5 -12 12 -11 22 7 78 12 35 36 96 53 134 27 62 31 79 29
153 -1 45 2 82 7 82 5 0 19 -19 30 -43z"/>
<path d="M4692 1754 c-47 -33 -14 -124 45 -124 30 0 73 42 73 70 0 28 -43 70
-72 70 -13 0 -34 -7 -46 -16z"/>
<path d="M4880 1440 l0 -330 60 0 60 0 -2 328 -3 327 -57 3 -58 3 0 -331z"/>
<path d="M5078 1763 c-2 -5 -2 -153 0 -330 l3 -323 54 0 55 0 0 100 c0 80 3
100 14 100 16 0 56 -48 109 -131 19 -31 41 -60 47 -64 18 -11 117 -18 123 -8
3 4 -13 34 -36 66 -23 31 -63 86 -89 122 l-47 65 79 95 c44 52 80 97 80 100 0
9 -101 5 -119 -5 -10 -5 -45 -46 -76 -90 -32 -44 -64 -80 -72 -80 -10 0 -13
39 -13 195 l0 195 -54 0 c-30 0 -56 -3 -58 -7z"/>
<path d="M6105 1745 c-29 -28 -32 -61 -9 -93 32 -47 124 -12 124 47 0 28 -42
71 -70 71 -11 0 -32 -11 -45 -25z"/>
<path d="M4329 1744 c-57 -17 -115 -77 -125 -129 -3 -20 -4 -57 -1 -83 7 -63
62 -114 156 -142 36 -12 83 -32 104 -46 32 -21 37 -29 37 -63 0 -57 -27 -76
-104 -76 -45 0 -77 7 -114 24 l-52 24 -25 -23 c-14 -13 -25 -31 -25 -40 0 -39
120 -90 212 -90 84 0 176 52 202 115 57 135 11 218 -147 266 -87 27 -127 59
-127 103 0 21 8 40 21 52 30 27 120 25 175 -3 43 -23 54 -21 73 14 28 54 -2
83 -110 103 -67 13 -94 12 -150 -6z"/>
<path d="M5660 1430 l0 -320 191 0 192 0 -7 42 c-4 23 -12 46 -19 50 -7 4 -60
8 -119 8 l-108 0 -2 268 -3 267 -62 3 -63 3 0 -321z"/>
<path d="M7378 1435 c-2 -173 -2 -318 -1 -323 2 -5 278 -7 396 -2 4 0 7 21 5
48 l-3 47 -137 3 -138 3 0 77 c0 42 4 82 8 89 5 8 44 13 112 15 114 3 120 7
106 63 -6 24 -10 24 -114 27 l-107 3 -3 74 c-2 41 1 78 5 82 4 4 68 11 141 15
l132 7 0 43 0 44 -200 0 -199 0 -3 -315z"/>
<path d="M6507 1560 c-21 -4 -51 -17 -67 -29 -37 -27 -44 -27 -58 4 -9 20 -19
25 -47 25 l-35 0 0 -224 c0 -245 -4 -232 65 -231 l40 0 3 171 2 172 34 16 c19
9 50 16 70 16 56 0 63 -20 71 -207 5 -106 11 -163 19 -166 9 -3 66 -2 89 2 4
0 7 78 7 171 0 148 -3 176 -19 208 -31 59 -96 86 -174 72z"/>
<path d="M6930 1560 c-107 -21 -172 -104 -173 -220 -2 -154 100 -248 256 -238
65 4 134 31 151 60 8 14 6 23 -12 40 -20 21 -25 21 -54 9 -18 -7 -54 -18 -79
-24 -41 -9 -50 -8 -81 11 -43 27 -80 98 -57 113 8 5 68 9 134 8 187 -2 168 -9
163 60 -9 127 -118 207 -248 181z m128 -96 c16 -11 22 -24 22 -49 l0 -35 -89
0 c-114 0 -122 3 -109 40 12 36 29 51 71 60 38 9 73 3 105 -16z"/>
<path d="M8508 1561 c-15 -5 -40 -18 -57 -30 -37 -26 -44 -26 -56 2 -8 17 -18
22 -50 22 l-40 0 0 -295 0 -295 55 0 55 0 3 83 c2 45 4 82 6 82 2 0 20 -7 39
-15 71 -29 154 -13 200 39 10 11 30 45 44 75 23 48 25 62 20 139 -4 72 -9 90
-34 126 -16 22 -40 46 -54 53 -35 17 -99 24 -131 14z m77 -108 c38 -65 31
-195 -13 -245 -24 -28 -80 -34 -119 -13 l-33 18 0 112 c0 97 3 114 19 129 41
38 123 37 146 -1z"/>
<path d="M4680 1335 l0 -225 54 0 c66 0 62 -15 61 251 l0 194 -57 3 -58 3 0
-226z"/>
<path d="M6097 1553 c-4 -3 -7 -105 -7 -225 l0 -218 54 0 53 0 6 98 c4 84 4
155 -2 317 -1 35 -1 35 -49 35 -27 0 -52 -3 -55 -7z"/>
<path d="M7810 1551 c0 -4 15 -28 33 -52 43 -57 107 -154 107 -163 0 -12 -102
-171 -127 -197 -32 -34 -19 -42 52 -34 l54 7 43 77 c24 42 50 76 58 76 8 0 33
-33 55 -74 24 -44 50 -77 63 -82 26 -10 91 -9 97 1 3 4 -25 56 -61 116 l-66
108 18 31 c9 16 39 62 65 102 27 40 49 77 49 83 0 6 -24 10 -54 10 l-54 0 -50
-86 c-55 -95 -49 -96 -105 7 -20 37 -44 70 -53 73 -24 9 -124 7 -124 -3z"/>
<path d="M8879 1534 c-104 -58 -140 -205 -79 -325 48 -94 185 -136 292 -90
168 72 184 336 26 417 -68 35 -175 34 -239 -2z m202 -85 c52 -70 34 -214 -33
-250 -54 -29 -128 -2 -147 53 -16 44 -14 133 4 173 17 43 45 56 109 51 37 -2
53 -9 67 -27z"/>
<path d="M1740 1040 c17 -11 47 -14 36 -3 -3 4 -17 8 -29 10 -17 2 -19 1 -7
-7z"/>
<path d="M1868 973 c7 -3 16 -2 19 1 4 3 -2 6 -13 5 -11 0 -14 -3 -6 -6z"/>
<path d="M1988 932 c-19 -4 -22 -11 -12 -36 3 -9 10 -13 15 -10 5 3 9 0 9 -5
0 -6 -5 -11 -12 -11 -6 0 -8 -3 -5 -6 4 -4 12 -2 20 4 8 7 18 7 27 2 19 -12
30 -12 30 -2 0 5 -10 14 -22 21 -22 11 -6 8 29 -6 27 -11 6 13 -29 34 -18 10
-41 17 -50 15z"/>
<path d="M2108 903 c7 -3 16 -2 19 1 4 3 -2 6 -13 5 -11 0 -14 -3 -6 -6z"/>
<path d="M2115 874 c-14 -5 -24 -12 -22 -15 2 -2 7 -16 11 -31 5 -20 2 -28
-11 -31 -10 -2 -7 -2 7 1 14 2 43 4 65 4 39 0 39 0 15 13 -14 8 -32 14 -40 15
-9 0 -16 9 -17 20 -1 15 4 20 26 20 15 0 32 -5 38 -11 8 -8 13 -8 17 0 4 6 0
11 -9 11 -9 0 -14 3 -12 8 7 11 -38 9 -68 -4z"/>
<path d="M1900 846 c0 -2 7 -7 16 -10 8 -3 12 -2 9 4 -6 10 -25 14 -25 6z"/>
<path d="M2148 843 c7 -3 16 -2 19 1 4 3 -2 6 -13 5 -11 0 -14 -3 -6 -6z"/>
<path d="M2023 829 c11 -7 23 -7 35 0 14 9 11 10 -18 10 -29 0 -32 -1 -17 -10z"/>
<path d="M2235 821 c-3 -5 -2 -12 3 -15 5 -3 9 1 9 9 0 17 -3 19 -12 6z"/>
<path d="M2133 783 c9 -2 25 -2 35 0 9 3 1 5 -18 5 -19 0 -27 -2 -17 -5z"/>
<path d="M2236 781 c-4 -5 3 -7 14 -4 23 6 26 13 6 13 -8 0 -17 -4 -20 -9z"/>
<path d="M2318 773 c6 -2 18 -2 25 0 6 3 1 5 -13 5 -14 0 -19 -2 -12 -5z"/>
</g>
</svg>
